<svg xmlns="http://www.w3.org/2000/svg" viewBox="0 0 1000 1000" xml:space="preserve"><switch><g><circle fill="#13333D" cx="500" cy="500" r="398"/><circle fill="#0F3D4E" cx="500" cy="500" r="344.3"/><path fill="#13333D" d="M702 325H298c-13.8 0-25 11.2-25 25v260c0 13.8 11.2 25 25 25h11v2.3c0 2.8 2.2 5 5 5h32.3c2.8 0 5-2.2 5-5V635h10.9v2.3c0 2.8 2.2 5 5 5h11.2c2.8 0 5-2.2 5-5V635h72.1L436 708h-34.3c-5.1 0-9.5 3-11.5 7.4-.2.4-.3.8-.5 1.2l-.3 1.2v.1c-.1.4-.1.8-.2 1.1v.2c0 .4-.1.9-.1 1.4 0 7 5.7 12.7 12.7 12.7h196.7c3.9 0 7.5-1.8 9.8-4.6 1.8-2.2 2.9-5 2.9-8.1 0-.5 0-.9-.1-1.4v-.2c0-.4-.1-.8-.2-1.1v-.1l-.3-1.2c-1.7-5-6.4-8.6-12-8.6H564l-19.5-73H702c13.8 0 25-11.2 25-25V350c0-13.8-11.2-25-25-25z"/><g><path fill="#36A9E1" d="M702 615H298c-13.8 0-25-11.2-25-25V330c0-13.8 11.2-25 25-25h404c13.8 0 25 11.2 25 25v260c0 13.8-11.2 25-25 25z"/><path fill="#413E91" d="M564 688H436l19.5-73h89z"/><path fill="#36A9E1" d="M598.3 713.3H401.7c-7 0-12.7-5.7-12.7-12.7 0-7 5.7-12.7 12.7-12.7h196.7c7 0 12.7 5.7 12.7 12.7-.1 7.1-5.8 12.7-12.8 12.7z"/><path fill="#0091C5" d="M598.3 702.8H401.7c-5.1 0-9.5-3-11.5-7.4-.7 1.6-1.1 3.4-1.1 5.3 0 7 5.7 12.7 12.7 12.7h196.7c7 0 12.7-5.7 12.7-12.7 0-1.9-.4-3.6-1.1-5.3-2.2 4.4-6.6 7.4-11.8 7.4z"/><path fill="#A44995" d="M727 556V330c0-13.8-11.2-25-25-25H298c-13.8 0-25 11.2-25 25v226h454zM346.3 622.3H314c-2.8 0-5-2.2-5-5V615h42.3v2.3c0 2.8-2.2 5-5 5zM378.4 622.3h-11.2c-2.8 0-5-2.2-5-5V615h21.2v2.3c0 2.8-2.2 5-5 5z"/><path fill="#952584" d="M702 305h-18.3l-251 251H727V330c0-13.8-11.2-25-25-25z"/><path fill="#2C3088" d="m551 639.5-6.5-24.5h-89l-6.5 24.5zM380.7 570.1h-68.9c-1.5 0-2.8 1.2-2.8 2.7v2.8c0 1.5 1.2 2.8 2.8 2.8h68.9c1.5 0 2.8-1.2 2.8-2.8v-2.8c-.1-1.5-1.3-2.7-2.8-2.7z"/><path fill="#0091C5" d="M381.6 574.2h-70.8c-.7 0-1.3-.8-1.6-2.1-.2.6-.3 1.3-.3 2.1 0 2.3.8 4.1 1.8 4.1h70.8c1 0 1.8-1.8 1.8-4.1 0-.8-.1-1.5-.3-2.1-.2 1.3-.7 2.1-1.4 2.1z"/><path fill="#2C3088" d="M380.7 588.3h-68.9c-1.5 0-2.8 1.2-2.8 2.7v2.8c0 1.5 1.2 2.8 2.8 2.8h68.9c1.5 0 2.8-1.2 2.8-2.8V591c-.1-1.4-1.3-2.7-2.8-2.7z"/><path fill="#0091C5" d="M381.6 592.5h-70.8c-.7 0-1.3-.8-1.6-2.1-.2.6-.3 1.3-.3 2.1 0 2.3.8 4.1 1.8 4.1h70.8c1 0 1.8-1.8 1.8-4.1 0-.8-.1-1.5-.3-2.1-.2 1.2-.7 2.1-1.4 2.1z"/><path fill="#952584" d="M563.2 439.2c-2.1-.8-4.2-1.6-6.2-2.4V417c0-31.4-25.6-57-57-57s-57 25.6-57 57v19.9c-2.1.8-4.2 1.5-6.2 2.4v100.4c4.4 1.8 8.8 3.3 13.2 4.7 4.1 1.3 8.2 2.4 12.4 3.4 5.2 1.2 10.4 2.2 15.6 2.9h.1c5.2.7 10.4 1.2 15.7 1.4 4.2.2 8.4.2 12.6 0 5.2-.2 10.5-.7 15.7-1.4h.1c5.2-.7 10.4-1.7 15.6-2.9 4.1-1 8.3-2.1 12.4-3.4 4.4-1.4 8.9-3 13.2-4.7l-.2-100.5zM500 380c20.4 0 37 16.6 37 37v14c-24.5-5.6-49.5-5.6-74 0v-14c0-20.4 16.6-37 37-37z"/><path fill="#36A9E1" d="M557 463.5h-20V397c0-20.4-16.6-37-37-37s-37 16.6-37 37v66.5h-20V397c0-31.4 25.6-57 57-57s57 25.6 57 57v66.5z"/><path fill="#0091C5" d="M500 351.5c-25 0-45.3 18-45.3 40v72h8.3V397c0-20.4 16.6-37 37-37s37 16.6 37 37v66.5h8.3v-72c0-22-20.3-40-45.3-40z"/><path fill="#DADADA" d="M563.3 519.6c-41.2 16.6-85.3 16.6-126.5 0V419.2c38.5-15.6 79.7-16.6 118.6-3 2.6.9 5.3 1.9 7.9 3v100.4z"/><path fill="#FFF" d="M450 414.5v109.9c32.8 10.3 67.2 10.3 100 0V414.5c-32.8-10.3-67.2-10.3-100 0z"/><circle fill="#36A9E1" cx="500" cy="454.8" r="17.1"/><path fill="#36A9E1" d="M503.5 497.1h-6.9c-3.7 0-6.7-3-6.7-6.7v-35.8h20.3v35.8c-.1 3.7-3.1 6.7-6.7 6.7z"/><path fill="#2C3088" d="M501 492.9h-2c-1.8 0-3.2-1.4-3.2-3.2v-30.3h8.3v30.3c0 1.7-1.4 3.2-3.1 3.2z"/><circle fill="#2C3088" cx="500" cy="454.8" r="10.1"/><path fill="#DADADA" d="M563.3 428.9c-2.1-.8-4.2-1.6-6.3-2.3-39.5-13.8-81.1-13-120.2 2.3v10.4c.6 0 1.3-.1 1.9-.4 37.4-15.1 77.2-16.1 115.1-2.9 2.6.9 5.2 1.9 7.7 2.9.6.2 1.2.4 1.9.4v-10.4zM436.8 510c2.1.8 4.2 1.6 6.3 2.3 18.7 6.5 37.9 9.8 57 9.8 21.3 0 42.6-4.1 63.2-12.1v-10.4c-.6 0-1.3.1-1.9.4-37.4 15.1-77.2 16.1-115.1 2.9-2.6-.9-5.1-1.9-7.7-2.9-.6-.2-1.2-.4-1.9-.4V510z"/><path fill="#0091C5" d="M516 615h186c13.8 0 25-11.2 25-25v-34H575l-59 59z"/><g><circle fill="#413E91" cx="674" cy="589.6" r="18.1"/><circle fill="#A44995" cx="674" cy="584.6" r="18.1"/><path fill="#952584" d="M674 598c-7.4 0-13.4-6-13.4-13.4s6-13.4 13.4-13.4 13.4 6 13.4 13.4-6 13.4-13.4 13.4zm0-21.9c-4.7 0-8.4 3.8-8.4 8.4 0 4.7 3.8 8.4 8.4 8.4s8.4-3.8 8.4-8.4c0-4.6-3.7-8.4-8.4-8.4z"/><path fill="#952584" d="M674 587.1c-1.4 0-2.5-1.1-2.5-2.5v-10.9c0-1.4 1.1-2.5 2.5-2.5s2.5 1.1 2.5 2.5v10.9c0 1.4-1.1 2.5-2.5 2.5z"/></g><path fill="#952584" d="M309 615h42.3v2.9H309zM362.3 615h21.1v2.9h-21.1z"/></g></g></switch></svg>