<svg version="1.1" id="Layer_1" xmlns="http://www.w3.org/2000/svg" x="0" y="0" viewBox="0 0 256 256" style="enable-background:new 0 0 256 256" xml:space="preserve"><style>.st0{fill:#382b73}.st2{fill:#d1d3d4}.st3{fill:#ef5a9d}.st4{fill:#fff}.st5{fill:#bcbec0}.st8{fill:#009add}.st9{fill:#1caee4}.st10{fill:#27c1e6}.st11{fill:#fede3a}.st13{fill:#f7cb15}</style><switch><g><circle class="st0" cx="128" cy="128" r="119.4"/><circle cx="128" cy="128" r="103.299" style="fill:#473080"/><path class="st0" d="M64.833 166.917h126.333a6 6 0 0 0 6-6v-79a6 6 0 0 0-6-6H64.833a6 6 0 0 0-6 6v79a6 6 0 0 0 6 6zM208.236 180.488c.253-.261.486-.541.702-.835.033-.044.067-.087.099-.132.215-.304.408-.624.579-.958.026-.051.049-.103.075-.155a7.948 7.948 0 0 0 .81-3.49 8 8 0 0 0-8-8h-149a8 8 0 0 0-8 8c0 1.253.296 2.434.81 3.49.025.051.048.103.074.154.171.334.365.654.579.959.031.045.065.087.098.131.217.294.449.575.703.837l.041.045c.262.265.545.507.841.734.057.043.113.086.17.127.299.216.609.416.937.59.038.02.079.037.118.057.308.157.627.293.956.409.06.021.118.045.178.065.351.115.713.204 1.083.27.077.014.155.024.234.036a8.01 8.01 0 0 0 1.177.096h149a8.01 8.01 0 0 0 1.177-.096c.078-.012.156-.022.234-.036.37-.066.732-.155 1.083-.27.061-.02.118-.044.178-.065.329-.117.648-.252.955-.409.039-.02.08-.036.118-.057a8.004 8.004 0 0 0 1.108-.718c.296-.227.579-.468.84-.733.016-.014.029-.031.043-.046z"/><g><path class="st2" d="M191.167 159.917H64.833a6 6 0 0 1-6-6v-79a6 6 0 0 1 6-6h126.333a6 6 0 0 1 6 6v79a6 6 0 0 1-5.999 6z"/><path class="st3" d="M187.667 155H68.333a4 4 0 0 1-4-4V77.833a4 4 0 0 1 4-4h119.333a4 4 0 0 1 4 4V151c.001 2.209-1.79 4-3.999 4z"/><path class="st4" d="M202.5 175.919h-149a8 8 0 0 1 0-16h149a8 8 0 0 1 0 16z"/><path class="st2" d="M202.5 164.752h-55.298c-1.201 0-2.278.624-3.01 1.575a5.976 5.976 0 0 1-4.747 2.339h-22.89a5.979 5.979 0 0 1-4.747-2.339c-.733-.951-1.809-1.575-3.01-1.575H53.5a8.003 8.003 0 0 0-7.627 5.583 8.002 8.002 0 0 0 7.627 5.583h149a8 8 0 0 0 7.626-5.583 8 8 0 0 0-7.626-5.583z"/><path class="st5" d="M68.719 173.376c-1.498 0-2.407-1.653-1.604-2.918l1.767-2.784a1.901 1.901 0 0 1 1.604-.882c1.498 0 2.407 1.653 1.604 2.918l-1.767 2.784c-.348.55-.954.882-1.604.882zM76.386 173.376c-1.498 0-2.407-1.653-1.604-2.918l1.767-2.784a1.899 1.899 0 0 1 1.604-.882c1.498 0 2.407 1.653 1.604 2.918l-1.767 2.784c-.349.55-.954.882-1.604.882zM84.053 173.376c-1.498 0-2.407-1.653-1.604-2.918l1.767-2.784a1.9 1.9 0 0 1 1.604-.882c1.498 0 2.407 1.653 1.604 2.918l-1.767 2.784c-.349.55-.954.882-1.604.882zM91.719 173.376c-1.498 0-2.407-1.653-1.604-2.918l1.767-2.784a1.901 1.901 0 0 1 1.604-.882c1.498 0 2.407 1.653 1.604 2.918l-1.767 2.784c-.348.55-.954.882-1.604.882z"/><g><path class="st5" d="M187.281 173.376c1.498 0 2.407-1.653 1.604-2.918l-1.767-2.784a1.9 1.9 0 0 0-1.604-.882c-1.498 0-2.406 1.653-1.604 2.918l1.767 2.784c.348.55.953.882 1.604.882zM179.614 173.376c1.498 0 2.407-1.653 1.604-2.918l-1.767-2.784a1.901 1.901 0 0 0-1.604-.882c-1.498 0-2.407 1.653-1.604 2.918l1.767 2.784c.349.55.954.882 1.604.882zM171.947 173.376c1.498 0 2.407-1.653 1.604-2.918l-1.767-2.784a1.9 1.9 0 0 0-1.604-.882c-1.498 0-2.407 1.653-1.604 2.918l1.767 2.784c.349.55.954.882 1.604.882zM164.281 173.376c1.498 0 2.407-1.653 1.604-2.918l-1.767-2.784a1.9 1.9 0 0 0-1.604-.882c-1.498 0-2.406 1.653-1.604 2.918l1.767 2.784c.348.55.953.882 1.604.882z"/></g><g><path class="st3" d="M187.667 155H68.333a4 4 0 0 1-4-4V77.833a4 4 0 0 1 4-4h119.333a4 4 0 0 1 4 4V151c.001 2.209-1.79 4-3.999 4z"/></g><g><path class="st4" d="M187.667 73.833H68.333a4 4 0 0 0-4 4V89.5h127.333V77.833c.001-2.209-1.79-4-3.999-4z"/><path class="st3" d="M96.965 84.667H75.484a3 3 0 1 1 0-6h21.482a3 3 0 0 1 3 3 3.001 3.001 0 0 1-3.001 3zM183.328 84.667a3 3 0 1 1 0-6 3 3 0 1 1 0 6z"/><path d="M123.125 155H69.471a5.138 5.138 0 0 1-5.138-5.138V89.5h58.792V155z" style="fill:#e43d91"/><path d="M115.022 111.65a1.728 1.728 0 0 0-.973-.297h-12.604v-.798a.435.435 0 0 0-.435-.435h-.449c-.149-2.301-3.094-4.079-6.838-4.079s-6.688 1.778-6.838 4.079h-.449a.435.435 0 0 0-.435.435v.798H73.398a1.739 1.739 0 0 0-1.74 1.74v8.103c0 .406.136.803.398 1.112.302.355.619.702.949 1.041v18.293c0 .961.779 1.74 1.74 1.74h37.957a1.74 1.74 0 0 0 1.74-1.74v-18.293c.33-.339.647-.686.949-1.041.262-.309.398-.706.398-1.112v-8.103a1.74 1.74 0 0 0-.767-1.443zm-25.939-1.53h-.433c.198-1.141 2.212-2.338 5.073-2.338s4.875 1.197 5.073 2.338h-.433a.435.435 0 0 0-.435.435v.798h-2.084v-.009h-4.242v.009h-2.084v-.798a.435.435 0 0 0-.435-.435z" style="fill:#a72973"/><path class="st8" d="M112.702 140.382H74.745a1.74 1.74 0 0 1-1.74-1.74v-26.374c0-.961.779-1.74 1.74-1.74h37.957c.961 0 1.74.779 1.74 1.74v26.374a1.74 1.74 0 0 1-1.74 1.74z"/><path class="st9" d="M112.702 138.207H74.745a1.74 1.74 0 0 1-1.74-1.74v-26.374c0-.961.779-1.74 1.74-1.74h37.957c.961 0 1.74.779 1.74 1.74v26.374a1.74 1.74 0 0 1-1.74 1.74z"/><path class="st10" d="M93.315 129.207h.816v9h-.816z"/><path class="st8" d="M93.723 128.346c9.071 0 17.049-3.596 21.667-9.038.262-.309.398-.706.398-1.112v-8.104a1.74 1.74 0 0 0-1.74-1.74h-40.65a1.74 1.74 0 0 0-1.74 1.74v8.104c0 .406.136.803.398 1.112 4.618 5.441 12.596 9.038 21.667 9.038z"/><path class="st9" d="M114.049 108.352H73.398a1.74 1.74 0 0 0-1.74 1.74v3.045c0-.961.779-1.74 1.74-1.74h40.651c.961 0 1.74.779 1.74 1.74v-3.045c0-.96-.779-1.74-1.74-1.74z"/><path class="st11" d="M89.083 107.12h-2.646a.435.435 0 0 0-.435.435v.798h3.517v-.798a.437.437 0 0 0-.436-.435zM101.01 107.12h-2.646a.435.435 0 0 0-.435.435v.798h3.517v-.798a.436.436 0 0 0-.436-.435z"/><path class="st9" d="M98.819 107.12h1.75c-.148-2.301-3.101-4.079-6.845-4.079-3.744 0-6.698 1.777-6.846 4.079h1.75c.198-1.141 2.235-2.338 5.096-2.338 2.86-.001 4.897 1.197 5.095 2.338z"/><path class="st8" d="M98.819 107.12h.878c-.166-1.788-2.777-3.208-5.973-3.208-3.196 0-5.807 1.421-5.973 3.208h.878c.198-1.141 2.235-2.338 5.096-2.338 2.859-.001 4.896 1.197 5.094 2.338z"/><path class="st9" d="M91.602 108.343h4.242v16.133h-4.242z"/><path class="st10" d="M91.602 108.343h4.242v3.054h-4.242z"/><g><path d="M96.929 129.207h-6.411a.574.574 0 0 1-.575-.575v-3.581c0-.318.257-.575.575-.575h6.411c.318 0 .575.257.575.575v3.581a.575.575 0 0 1-.575.575z" style="fill:#fff335"/><path class="st13" d="M96.929 128.653h-6.411a.576.576 0 0 1-.575-.575v.554c0 .318.257.575.575.575h6.411a.575.575 0 0 0 .575-.575v-.554a.576.576 0 0 1-.575.575zM95.688 127.391h-3.929a.507.507 0 0 1-.507-.507v-.591c0-.28.227-.507.507-.507h3.929c.28 0 .507.227.507.507v.591c0 .28-.227.507-.507.507z"/></g><g><path class="st4" d="M139.638 125.555h-6.888a2 2 0 0 0-2 2v17.3a2 2 0 0 0 2 2h6.888a2 2 0 0 0 2-2v-17.3a2 2 0 0 0-2-2zM153.653 131.268h-6.888a2 2 0 0 0-2 2v11.586a2 2 0 0 0 2 2h6.888a2 2 0 0 0 2-2v-11.586a2 2 0 0 0-2-2z"/><path class="st11" d="M167.668 118.822h-6.888a2 2 0 0 0-2 2v24.033a2 2 0 0 0 2 2h6.888a2 2 0 0 0 2-2v-24.033a2 2 0 0 0-2-2z"/><path class="st9" d="M181.683 107.12h-6.888a2 2 0 0 0-2 2v35.735a2 2 0 0 0 2 2h6.888a2 2 0 0 0 2-2V109.12a2 2 0 0 0-2-2z"/><g><path class="st4" d="M150.209 123.174c-.259 0-.519-.05-.767-.153l-14.015-5.814a2 2 0 1 1 1.533-3.694l12.856 5.333 13.078-11.614 14.061-11.742a2 2 0 0 1 2.564 3.071l-14.015 11.702-13.969 12.407a1.992 1.992 0 0 1-1.326.504z"/></g><g><path class="st4" d="M171.404 94.306h8.443a.86.86 0 0 1 .861.86v8.443c0 .767-.927 1.15-1.469.608l-8.443-8.443c-.542-.542-.158-1.468.608-1.468z"/></g><g><path class="st2" d="m180.281 103.176-8.443-8.443a.84.84 0 0 1-.231-.427h-.202c-.767 0-1.15.927-.608 1.469l8.443 8.443c.542.542 1.469.158 1.469-.608v-.202a.86.86 0 0 1-.428-.232z"/></g></g></g></g></g></switch></svg>