<svg version="1.1" id="Layer_1" xmlns="http://www.w3.org/2000/svg" x="0" y="0" viewBox="0 0 256 256" style="enable-background:new 0 0 256 256" xml:space="preserve"><style>.st0{fill:#382b73}.st4{fill:#f7cb15}.st6{fill:#fff}.st7{fill:#d1d3d4}.st8{fill:#bcbec0}.st9{fill:#e6e7e8}</style><switch><g><circle class="st0" cx="128" cy="128" r="119.4"/><circle cx="128" cy="128" r="103.299" style="fill:#473080"/><path class="st0" d="M87.678 173.448c-.007-.081-.002-.163-.017-.242a2.398 2.398 0 0 0-.151-.469c-.013-.03-.018-.062-.032-.091-.359-.772-1.122-1.355-2.109-1.355h-11.97V76.526a4 4 0 0 0-8 0v94.765H53.43c-.988 0-1.75.583-2.109 1.355-.013.028-.019.06-.031.089a2.363 2.363 0 0 0-.152.472c-.015.078-.01.159-.017.239-.01.121-.028.24-.019.363.009.127.048.252.08.378.02.079.024.159.053.236.075.204.18.403.321.593l4.583 6.175 11.386 15.341c.467.629 1.17.943 1.874.943a2.313 2.313 0 0 0 1.483-.531c.008-.006.014-.016.022-.023.133-.113.259-.241.369-.389l15.969-21.516c.141-.19.246-.389.321-.593.029-.078.033-.158.053-.237.031-.126.07-.251.08-.378.01-.122-.008-.24-.018-.36zM204.77 95.586a2.376 2.376 0 0 0-.326-.602l-1.706-2.299-14.263-19.217a2.334 2.334 0 0 0-3.748 0l-14.263 19.217-1.706 2.299c-.617.832-.566 1.842-.099 2.604.397.649 1.091 1.12 1.973 1.12h11.969v94.765a4 4 0 0 0 8 0V98.709h11.969a2.31 2.31 0 0 0 1.263-.366c.298-.192.529-.459.71-.755.358-.585.478-1.314.227-2.002zM157.75 72.526h-59.5a4 4 0 0 0-4 4v27.658a4 4 0 0 0 4 4h59.5a4 4 0 0 0 4-4V76.526a4 4 0 0 0-4-4zM157.75 117.171h-59.5a4 4 0 0 0-4 4v27.658a4 4 0 0 0 4 4h59.5a4 4 0 0 0 4-4v-27.658a4 4 0 0 0-4-4zM157.75 161.816h-59.5a4 4 0 0 0-4 4v27.658a3.97 3.97 0 0 0 1.172 2.828 3.994 3.994 0 0 0 2.828 1.171h59.5a3.997 3.997 0 0 0 3.999-3.999v-27.658c.001-2.209-1.79-4-3.999-4z"/><g><path d="M85.369 164.291h-11.97V69.526a4 4 0 0 0-8 0v94.765H53.43c-1.918 0-3.017 2.185-1.874 3.725l15.969 21.516a2.334 2.334 0 0 0 3.748 0l15.969-21.516c1.144-1.54.045-3.725-1.873-3.725z" style="fill:#1caee4"/><path d="m85.536 164.315-14.263 19.216a2.334 2.334 0 0 1-3.748 0l-14.263-19.216c-1.808.128-2.814 2.208-1.707 3.701l15.969 21.516a2.334 2.334 0 0 0 3.748 0l15.969-21.516c1.109-1.493.103-3.573-1.705-3.701z" style="fill:#009add"/><g><path class="st4" d="M186.601 188.474a4 4 0 0 1-4-4v2a4 4 0 0 0 8 0v-2a4 4 0 0 1-4 4z"/><path d="m204.444 87.984-15.969-21.516a2.334 2.334 0 0 0-3.748 0l-15.969 21.516c-1.143 1.54-.044 3.725 1.874 3.725h11.969v94.765a4 4 0 0 0 8 0V91.709h11.969c1.917 0 3.017-2.185 1.874-3.725z" style="fill:#fede3a"/><path class="st4" d="M202.737 85.685c-.058.004-.108.024-.167.024h-31.939c-.059 0-.11-.02-.167-.024l-1.707 2.299c-1.143 1.54-.044 3.725 1.874 3.725h31.939c1.918 0 3.017-2.185 1.874-3.725l-1.707-2.299z"/></g><g><path class="st6" d="M157.75 101.184h-59.5a4 4 0 0 1-4-4V69.526a4 4 0 0 1 4-4h59.5a4 4 0 0 1 4 4v27.658a4 4 0 0 1-4 4z"/><path class="st7" d="M157.75 97.184h-59.5a4 4 0 0 1-4-4v4a4 4 0 0 0 4 4h59.5a4 4 0 0 0 4-4v-4a4 4 0 0 1-4 4z"/><path class="st6" d="M157.75 145.829h-59.5a4 4 0 0 1-4-4v-27.658a4 4 0 0 1 4-4h59.5a4 4 0 0 1 4 4v27.658a4 4 0 0 1-4 4z"/><path class="st7" d="M157.75 141.829h-59.5a4 4 0 0 1-4-4v4a4 4 0 0 0 4 4h59.5a4 4 0 0 0 4-4v-4a4 4 0 0 1-4 4z"/><path class="st6" d="M157.75 190.474h-59.5a4 4 0 0 1-4-4v-27.658a4 4 0 0 1 4-4h59.5a4 4 0 0 1 4 4v27.658a4 4 0 0 1-4 4z"/><path class="st7" d="M157.75 186.474h-59.5a4 4 0 0 1-4-4v4a4 4 0 0 0 4 4h59.5a4 4 0 0 0 4-4v-4a4 4 0 0 1-4 4z"/><g><path class="st8" d="M139.066 80.355h-22.132a3 3 0 1 1 0-6h22.132a3 3 0 1 1 0 6z"/><path class="st9" d="M145.452 90.355h-34.904a3 3 0 1 1 0-6h34.904a3 3 0 1 1 0 6z"/></g><g><path class="st8" d="M139.066 125h-22.132a3 3 0 1 1 0-6h22.132a3 3 0 1 1 0 6z"/><path class="st9" d="M145.452 135h-34.904a3 3 0 1 1 0-6h34.904a3 3 0 1 1 0 6z"/></g><g><path class="st8" d="M139.066 169.645h-22.132a3 3 0 1 1 0-6h22.132a3 3 0 1 1 0 6z"/><path class="st9" d="M145.452 179.645h-34.904a3 3 0 1 1 0-6h34.904a3 3 0 1 1 0 6z"/></g></g></g></g></switch></svg>