<svg xmlns="http://www.w3.org/2000/svg" xml:space="preserve" width="2048" height="2048" style="shape-rendering:geometricPrecision;text-rendering:geometricPrecision;image-rendering:optimizeQuality;fill-rule:evenodd;clip-rule:evenodd"><defs><clipPath id="id0"><path d="M1024-.001c565.541 0 1024 458.46 1024 1024s-458.461 1024-1024 1024c-565.541 0-1024-458.461-1024-1024 0-565.541 458.461-1024 1024-1024z"/></clipPath><style>.fil10{fill:#000}.fil1{fill:#00acc1}.fil6{fill:#212121}.fil9{fill:#424242}.fil7{fill:#43a047}.fil8{fill:#55abdb}.fil11{fill:#757575}.fil3{fill:#ffd54f;fill-rule:nonzero}</style></defs><g id="Layer_x0020_1"><path d="M1024-.001c565.541 0 1024 458.46 1024 1024s-458.461 1024-1024 1024c-565.541 0-1024-458.461-1024-1024 0-565.541 458.461-1024 1024-1024z" style="fill:#4dd0e1"/><g style="clip-path:url(#id0)"><g id="_385672168"><path id="_2854556241" class="fil1" d="M1520.65 521.346 2656.53 1657.23l1.27 1.68 1.09 1.81.93 1.91.74 2.01.54 2.09.33 2.16.12 2.23v739.6l-.12 2.23-.33 2.16-.54 2.09-.74 2.01-.93 1.91-1.1 1.81-1.26 1.68-1.42 1.56-1.55 1.41-1.69 1.27-1.8 1.1-1.91.92-2.01.74-2.09.54-2.16.33-2.23.12h-455.44L1048.35 1296.72h455.44l2.23-.12 2.16-.33 2.09-.54 2.01-.74 1.91-.93 1.8-1.1 1.69-1.26 1.55-1.42 1.42-1.55 1.26-1.69 1.1-1.8.93-1.91.74-2.01.54-2.09.33-2.16.11-2.23V535.233l-.11-2.226-.33-2.164-.54-2.09-.74-2.007-.93-1.911-1.09-1.803z"/><path id="_285456128" class="fil1" d="M999.652 1296.72 2135.53 2432.6h-455.44l-2.22-.12-2.17-.33-2.09-.54-2.01-.74-1.91-.92-1.8-1.1-1.69-1.26L530.324 1291.7l1.685 1.27 1.804 1.1 1.911.92 2.006.74 2.091.54 2.164.33 2.226.12z"/><path id="_285456968" class="fil1" d="M1048.35 1296.72 2184.23 2432.6v87.55L1048.35 1384.27z"/><path id="_285456512" class="fil1" d="m1584 1435.1 1135.88 1135.89v48.69L1584 1483.8z"/><path id="_285456560" class="fil1" d="M1175.42 1392.84 2311.3 2528.72l1.89 2.07 1.68 2.25 1.47 2.4 1.23 2.55.98 2.68.72 2.79.45 2.89.15 2.97v21.67L1183.99 1435.1v-21.67l-.15-2.97-.45-2.88-.72-2.79-.98-2.68-1.24-2.55-1.46-2.4-1.68-2.25z"/><path id="_285456416" class="fil1" d="M873.354 1483.8 2009.24 2619.68h-409.36L463.999 1483.8z"/><path id="_285456680" class="fil1" d="m1183.99 1483.8 1135.88 1135.88v21.68l-.15 2.97-.45 2.89-.72 2.78-.98 2.68-1.23 2.55-1.47 2.4-1.68 2.25-1.89 2.08-2.07 1.88-2.25 1.68-2.4 1.47-2.55 1.23-2.68.99-2.79.72-2.88.44-2.98.15h-252.3l-2.97-.15-2.89-.44-2.79-.72-2.67-.99-2.55-1.23-2.41-1.47-2.24-1.68L883.996 1527.96l2.246 1.68 2.405 1.47 2.549 1.23 2.676.98 2.789.73 2.887.44 2.972.15h252.3l2.97-.15 2.89-.44 2.79-.73 2.68-.98 2.55-1.23 2.4-1.47 2.25-1.68 2.07-1.89 1.89-2.07 1.68-2.25 1.46-2.4 1.24-2.55.98-2.68.72-2.79.45-2.89.15-2.97z"/><path id="_285456848" class="fil1" d="m1584 1483.8 1135.88 1135.88h-400.01L1183.99 1483.8z"/><path id="_385672480" class="fil1" d="M1503.79 513.359c12.03 0 21.874 9.857 21.874 21.874v739.608c0 12.017-9.857 21.874-21.874 21.874h-455.442v87.553h106.474c16.043 0 29.166 13.125 29.166 29.166v21.67h400.013v48.697h-400.013v21.673c0 16.04-13.124 29.166-29.166 29.166H902.519c-16.042 0-29.166-13.124-29.166-29.166V1483.8H463.998v-48.697h409.355v-21.67c0-16.042 13.123-29.166 29.166-29.166h97.132v-87.553H544.21c-12.017 0-21.874-9.843-21.874-21.874V535.233c0-12.03 9.842-21.874 21.874-21.874h959.579z"/></g></g><path d="M1024-.001c565.541 0 1024 458.46 1024 1024s-458.461 1024-1024 1024c-565.541 0-1024-458.461-1024-1024 0-565.541 458.461-1024 1024-1024z" style="fill:none"/><path class="fil3" d="M1048.35 1256.11v152.51h-48.698v-152.51zM464 1435.1h433.702v48.697H464V1435.1zm687.886 0H1584v48.697h-432.114V1435.1z"/><path d="M902.52 1384.27h252.303c16.043 0 29.166 13.126 29.166 29.166v92.04c0 16.04-13.124 29.166-29.166 29.166H902.52c-16.042 0-29.166-13.124-29.166-29.166v-92.04c0-16.042 13.123-29.166 29.166-29.166z" style="fill:#455a64"/><path d="M544.211 513.359h959.579c12.03 0 21.874 9.857 21.874 21.874v739.608c0 12.017-9.857 21.874-21.874 21.874H544.211c-12.017 0-21.874-9.843-21.874-21.874V535.233c0-12.03 9.842-21.874 21.874-21.874z" style="fill:#616161"/><path class="fil6" d="M573.201 597.31h901.598c10.573 0 19.223 8.67 19.223 19.224v54.896c0 10.554-8.669 19.224-19.223 19.224H573.201c-10.553 0-19.223-8.65-19.223-19.224v-54.896c0-10.574 8.65-19.224 19.223-19.224z"/><circle class="fil7" cx="601.034" cy="645.495" r="17.489"/><circle class="fil7" cx="646.535" cy="645.495" r="17.489"/><circle class="fil7" cx="692.035" cy="645.495" r="17.489"/><circle class="fil8" cx="1401.99" cy="645.495" r="17.489"/><circle class="fil8" cx="1447.49" cy="645.495" r="17.489"/><path class="fil9" d="M732.334 620.641h583.334v46.667H732.334z"/><path class="fil10" d="M763.362 634.083h20.15v20.15h-20.15zM796.77 634.083h20.15v20.15h-20.15zM830.179 634.083h20.15v20.15h-20.15zM863.587 634.083h20.15v20.15h-20.15zM896.996 634.083h20.15v20.15h-20.15zM930.404 634.083h20.15v20.15h-20.15zM963.813 634.083h20.15v20.15h-20.15zM997.221 634.083h20.15v20.15h-20.15zM1030.63 634.083h20.15v20.15h-20.15zM1064.04 634.083h20.15v20.15h-20.15zM1097.45 634.083h20.15v20.15h-20.15zM1130.86 634.083h20.15v20.15h-20.15zM1164.26 634.083h20.15v20.15h-20.15zM1197.67 634.083h20.15v20.15h-20.15zM1231.08 634.083h20.15v20.15h-20.15zM1264.49 634.083h20.15v20.15h-20.15z"/><path class="fil6" d="M573.201 713.975h901.598c10.573 0 19.223 8.668 19.223 19.223v54.897c0 10.553-8.669 19.223-19.223 19.223H573.201c-10.553 0-19.223-8.65-19.223-19.223v-54.898c0-10.573 8.65-19.222 19.223-19.222z"/><circle class="fil7" cx="601.034" cy="762.159" r="17.489"/><circle class="fil7" cx="646.535" cy="762.159" r="17.489"/><circle class="fil7" cx="692.035" cy="762.159" r="17.489"/><circle class="fil8" cx="1401.99" cy="762.159" r="17.489"/><circle class="fil8" cx="1447.49" cy="762.159" r="17.489"/><path class="fil9" d="M732.334 737.305h583.334v46.667H732.334z"/><path class="fil10" d="M763.362 750.747h20.15v20.15h-20.15zM796.77 750.747h20.15v20.15h-20.15zM830.179 750.747h20.15v20.15h-20.15zM863.587 750.747h20.15v20.15h-20.15zM896.996 750.747h20.15v20.15h-20.15zM930.404 750.747h20.15v20.15h-20.15zM963.813 750.747h20.15v20.15h-20.15zM997.221 750.747h20.15v20.15h-20.15zM1030.63 750.747h20.15v20.15h-20.15zM1064.04 750.747h20.15v20.15h-20.15zM1097.45 750.747h20.15v20.15h-20.15zM1130.86 750.747h20.15v20.15h-20.15zM1164.26 750.747h20.15v20.15h-20.15zM1197.67 750.747h20.15v20.15h-20.15zM1231.08 750.747h20.15v20.15h-20.15zM1264.49 750.747h20.15v20.15h-20.15z"/><path class="fil6" d="M573.201 830.638h901.598c10.573 0 19.223 8.668 19.223 19.223v54.897c0 10.553-8.669 19.223-19.223 19.223H573.201c-10.553 0-19.223-8.65-19.223-19.223V849.86c0-10.573 8.65-19.222 19.223-19.222z"/><circle class="fil7" cx="601.034" cy="878.822" r="17.489"/><circle class="fil7" cx="646.535" cy="878.822" r="17.489"/><circle class="fil7" cx="692.035" cy="878.822" r="17.489"/><circle class="fil8" cx="1401.99" cy="878.822" r="17.489"/><circle class="fil8" cx="1447.49" cy="878.822" r="17.489"/><path class="fil9" d="M732.334 853.968h583.334v46.667H732.334z"/><path class="fil10" d="M763.362 867.41h20.15v20.15h-20.15zM796.77 867.41h20.15v20.15h-20.15zM830.179 867.41h20.15v20.15h-20.15zM863.587 867.41h20.15v20.15h-20.15zM896.996 867.41h20.15v20.15h-20.15zM930.404 867.41h20.15v20.15h-20.15zM963.813 867.41h20.15v20.15h-20.15zM997.221 867.41h20.15v20.15h-20.15zM1030.63 867.41h20.15v20.15h-20.15zM1064.04 867.41h20.15v20.15h-20.15zM1097.45 867.41h20.15v20.15h-20.15zM1130.86 867.41h20.15v20.15h-20.15zM1164.26 867.41h20.15v20.15h-20.15zM1197.67 867.41h20.15v20.15h-20.15zM1231.08 867.41h20.15v20.15h-20.15zM1264.49 867.41h20.15v20.15h-20.15z"/><path class="fil6" d="M573.201 947.302h901.598c10.573 0 19.223 8.668 19.223 19.223v54.897c0 10.554-8.669 19.223-19.223 19.223H573.201c-10.553 0-19.223-8.65-19.223-19.223v-54.897c0-10.574 8.65-19.223 19.223-19.223z"/><circle class="fil7" cx="601.034" cy="995.486" r="17.489"/><circle class="fil7" cx="646.535" cy="995.486" r="17.489"/><circle class="fil7" cx="692.035" cy="995.486" r="17.489"/><circle class="fil8" cx="1401.99" cy="995.486" r="17.489"/><circle class="fil8" cx="1447.49" cy="995.486" r="17.489"/><path class="fil9" d="M732.334 970.632h583.334v46.667H732.334z"/><path class="fil10" d="M763.362 984.074h20.15v20.15h-20.15zM796.77 984.074h20.15v20.15h-20.15zM830.179 984.074h20.15v20.15h-20.15zM863.587 984.074h20.15v20.15h-20.15zM896.996 984.074h20.15v20.15h-20.15zM930.404 984.074h20.15v20.15h-20.15zM963.813 984.074h20.15v20.15h-20.15zM997.221 984.074h20.15v20.15h-20.15zM1030.63 984.074h20.15v20.15h-20.15zM1064.04 984.074h20.15v20.15h-20.15zM1097.45 984.074h20.15v20.15h-20.15zM1130.86 984.074h20.15v20.15h-20.15zM1164.26 984.074h20.15v20.15h-20.15zM1197.67 984.074h20.15v20.15h-20.15zM1231.08 984.074h20.15v20.15h-20.15zM1264.49 984.074h20.15v20.15h-20.15z"/><path class="fil6" d="M573.201 1063.96h901.598c10.573 0 19.223 8.67 19.223 19.223v54.897c0 10.555-8.669 19.223-19.223 19.223H573.201c-10.553 0-19.223-8.65-19.223-19.223v-54.897c0-10.574 8.65-19.223 19.223-19.223z"/><circle class="fil7" cx="601.034" cy="1112.15" r="17.489"/><circle class="fil7" cx="646.535" cy="1112.15" r="17.489"/><circle class="fil7" cx="692.035" cy="1112.15" r="17.489"/><circle class="fil8" cx="1401.99" cy="1112.15" r="17.489"/><circle class="fil8" cx="1447.49" cy="1112.15" r="17.489"/><path class="fil9" d="M732.334 1087.3h583.334v46.667H732.334z"/><path class="fil10" d="M763.362 1100.74h20.15v20.15h-20.15zM796.77 1100.74h20.15v20.15h-20.15zM830.179 1100.74h20.15v20.15h-20.15zM863.587 1100.74h20.15v20.15h-20.15zM896.996 1100.74h20.15v20.15h-20.15zM930.404 1100.74h20.15v20.15h-20.15zM963.813 1100.74h20.15v20.15h-20.15zM997.221 1100.74h20.15v20.15h-20.15zM1030.63 1100.74h20.15v20.15h-20.15zM1064.04 1100.74h20.15v20.15h-20.15zM1097.45 1100.74h20.15v20.15h-20.15zM1130.86 1100.74h20.15v20.15h-20.15zM1164.26 1100.74h20.15v20.15h-20.15zM1197.67 1100.74h20.15v20.15h-20.15zM1231.08 1100.74h20.15v20.15h-20.15zM1264.49 1100.74h20.15v20.15h-20.15z"/><path class="fil6" d="M573.201 1180.63h901.598c10.573 0 19.223 8.67 19.223 19.223v54.897c0 10.555-8.669 19.223-19.223 19.223H573.201c-10.553 0-19.223-8.65-19.223-19.223v-54.897c0-10.573 8.65-19.223 19.223-19.223z"/><circle class="fil7" cx="601.034" cy="1228.81" r="17.489"/><circle class="fil7" cx="646.535" cy="1228.81" r="17.489"/><circle class="fil7" cx="692.035" cy="1228.81" r="17.489"/><circle class="fil8" cx="1401.99" cy="1228.81" r="17.489"/><circle class="fil8" cx="1447.49" cy="1228.81" r="17.489"/><path class="fil9" d="M732.334 1203.96h583.334v46.667H732.334z"/><path class="fil10" d="M763.362 1217.4h20.15v20.15h-20.15zM796.77 1217.4h20.15v20.15h-20.15zM830.179 1217.4h20.15v20.15h-20.15zM863.587 1217.4h20.15v20.15h-20.15zM896.996 1217.4h20.15v20.15h-20.15zM930.404 1217.4h20.15v20.15h-20.15zM963.813 1217.4h20.15v20.15h-20.15zM997.221 1217.4h20.15v20.15h-20.15zM1030.63 1217.4h20.15v20.15h-20.15zM1064.04 1217.4h20.15v20.15h-20.15zM1097.45 1217.4h20.15v20.15h-20.15zM1130.86 1217.4h20.15v20.15h-20.15zM1164.26 1217.4h20.15v20.15h-20.15zM1197.67 1217.4h20.15v20.15h-20.15zM1231.08 1217.4h20.15v20.15h-20.15zM1264.49 1217.4h20.15v20.15h-20.15z"/><circle class="fil11" cx="1454.5" cy="556.096" r="20.792"/><circle class="fil9" cx="1454.5" cy="556.096" r="13.216"/><circle class="fil11" cx="593.497" cy="556.096" r="20.792"/><circle class="fil9" cx="593.497" cy="556.096" r="13.216"/></g></svg>

